/* XPM */
static char *dummy[]={
"32 32 103 2",
"Qt c None",
".q c #000000",
".Q c #0f0f0f",
"#H c #141414",
"#D c #1f1f1f",
"#C c #252525",
".h c #2b2b2b",
"#x c #2f2f2f",
".p c #313131",
"#r c #3d3d3d",
".u c #424242",
"#E c #4a4a4a",
".X c #4f4f4f",
"#c c #515151",
".s c #525252",
".O c #535353",
".m c #565656",
"#q c #585858",
".c c #595959",
".G c #5b5b5b",
"#v c #5d5d5d",
"## c #5e5e5e",
".1 c #5f5f5f",
".K c #616161",
".M c #6a6a6a",
".5 c #6b6b6b",
".I c #6f6f6f",
"#j c #717171",
".n c #747474",
".d c #757575",
"#h c #777777",
"#t c #797979",
".U c #7a7a7a",
".w c #7b7b7b",
".B c #7c7c7c",
"#J c #7e7e7e",
".P c #7f7f7f",
"#z c #818181",
".A c #838383",
".x c #848484",
".D c #878787",
".4 c #888888",
"#l c #8d8d8d",
".W c #919191",
".V c #959595",
"#b c #979797",
".b c #989898",
".E c #999999",
"#n c #9b9b9b",
"#f c #9e9e9e",
"#A c #9f9f9f",
".l c #a1a1a1",
"#. c #a6a6a6",
".8 c #a7a7a7",
".S c #a9a9a9",
".Z c #ababab",
".0 c #acacac",
".e c #adadad",
".2 c #aeaeae",
".6 c #afafaf",
"#o c #b1b1b1",
".C c #b3b3b3",
"#F c #b6b6b6",
"#K c #b9b9b9",
"#u c #bababa",
".H c #c1c1c1",
"#I c #c7c7c7",
"#e c #c8c8c8",
".z c #c9c9c9",
"#y c #cacaca",
".r c #cdcdcd",
"#G c #d0d0d0",
".J c #d1d1d1",
".L c #d4d4d4",
"#g c #d6d6d6",
"#m c #d8d8d8",
"#w c #d9d9d9",
".9 c #dadada",
"#i c #dcdcdc",
".k c #dddddd",
"#s c #dedede",
".# c #e1e1e1",
".i c #e3e3e3",
"#a c #e4e4e4",
"#p c #e7e7e7",
".o c #e9e9e9",
"#B c #eaeaea",
".N c #ebebeb",
".g c #ececec",
".R c #ededed",
"#k c #efefef",
".a c #f0f0f0",
".Y c #f1f1f1",
".f c #f3f3f3",
".t c #f5f5f5",
".T c #f6f6f6",
"#d c #f7f7f7",
".3 c #f8f8f8",
".7 c #f9f9f9",
".y c #fbfbfb",
".j c #fcfcfc",
".v c #fdfdfd",
".F c #fefefe",
"QtQtQtQtQtQtQtQtQtQtQtQtQtQtQtQtQtQtQtQtQtQtQtQtQtQtQtQtQtQtQtQt",
"QtQtQtQtQtQtQtQtQtQtQtQtQtQtQtQtQtQtQtQtQtQtQtQtQtQtQtQtQtQtQtQt",
"QtQtQtQtQtQtQtQtQtQtQtQtQtQtQtQtQtQtQtQtQtQtQtQtQtQtQtQtQtQtQtQt",
"QtQtQtQtQtQtQtQtQtQtQtQtQtQt.#.aQtQtQt.b.c.d.e.fQtQtQtQtQtQtQtQt",
"QtQtQtQtQtQtQtQtQtQtQtQtQt.g.h.iQtQtQtQt.j.k.l.m.n.oQtQtQtQtQtQt",
"QtQtQtQtQtQtQtQtQtQtQtQt.f.p.q.iQtQtQtQtQtQtQtQt.r.s.eQtQtQtQtQt",
"QtQtQtQtQtQtQtQtQtQtQt.t.u.q.q.iQtQtQtQtQtQtQtQtQt.v.w.xQtQtQtQt",
"QtQtQtQtQtQtQtQtQtQt.y.s.q.q.q.iQtQt.z.A.B.CQtQtQtQtQt.D.EQtQtQt",
"QtQtQtQtQtQtQtQtQt.F.G.q.q.q.q.iQtQtQtQtQt.H.I.JQtQtQtQt.K.LQtQt",
"QtQtQtQtQtQtQtQtQt.M.q.q.q.q.q.iQtQtQtQtQtQt.v.D.HQtQtQt.N.OQtQt",
"QtQtQtQtQtQtQtQt.A.q.q.q.q.q.q.iQtQtQtQtQtQtQtQt.P.#QtQtQt.B.zQt",
"Qt.A.Q.Q.Q.Q.Q.Q.q.q.q.q.q.q.q.iQt.R.S.e.yQtQtQt.T.UQtQtQt.#.IQt",
"Qt.w.q.q.q.q.q.q.q.q.q.q.q.q.q.iQtQtQt.f.V.jQtQtQt.W.oQtQtQt.XQt",
"Qt.w.q.q.q.q.q.q.q.q.q.q.q.q.q.iQtQtQtQt.Y.ZQtQtQt.L.0QtQtQt.1.v",
"Qt.w.q.q.q.q.q.q.q.q.q.q.q.q.q.iQtQtQtQtQt.2QtQtQt.3.4QtQtQt.5.i",
"Qt.w.q.q.q.q.q.q.q.q.q.q.q.q.q.iQtQtQtQtQt.6QtQtQt.7.DQtQtQt.5.i",
"Qt.w.q.q.q.q.q.q.q.q.q.q.q.q.q.iQtQtQtQtQt.8QtQtQt.9#.QtQtQt##.v",
"Qt.w.q.q.q.q.q.q.q.q.q.q.q.q.q.iQtQtQtQt.6#aQtQtQt#b#aQtQtQt#cQt",
"Qt.w.q.q.q.q.q.q.q.q.q.q.q.q.q.iQt#d#e#f#gQtQtQt.y#hQtQtQt#i#jQt",
"Qt#d#k#k#k#k#k#k.1.q.q.q.q.q.q.iQt.T.iQtQtQtQtQt#l#mQtQtQt.w.rQt",
"QtQtQtQtQtQtQtQt.7.X.q.q.q.q.q.iQtQtQtQtQtQtQt#n#oQtQtQt#p#qQtQt",
"QtQtQtQtQtQtQtQtQt.f#r.q.q.q.q.iQtQtQtQtQt#s#t#uQtQtQt.F#v#wQtQt",
"QtQtQtQtQtQtQtQtQtQt.f#x.q.q.q.iQtQt#y#z.B.E.TQtQtQtQt.P#AQtQtQt",
"QtQtQtQtQtQtQtQtQtQtQt#B#C.q.q.iQtQt.vQtQtQtQtQtQt.y.I.VQtQtQtQt",
"QtQtQtQtQtQtQtQtQtQtQtQt#s#D.q.iQtQtQtQtQtQtQtQt.z#E#FQtQtQtQtQt",
"QtQtQtQtQtQtQtQtQtQtQtQtQt#G#H.iQtQtQt.F#d#g.b.O#t.aQtQtQtQtQtQt",
"QtQtQtQtQtQtQtQtQtQtQtQtQtQt#I.gQtQtQt#n.G#J#K.7QtQtQtQtQtQtQtQt",
"QtQtQtQtQtQtQtQtQtQtQtQtQtQtQtQtQtQtQtQtQtQtQtQtQtQtQtQtQtQtQtQt",
"QtQtQtQtQtQtQtQtQtQtQtQtQtQtQtQtQtQtQtQtQtQtQtQtQtQtQtQtQtQtQtQt",
"QtQtQtQtQtQtQtQtQtQtQtQtQtQtQtQtQtQtQtQtQtQtQtQtQtQtQtQtQtQtQtQt",
"QtQtQtQtQtQtQtQtQtQtQtQtQtQtQtQtQtQtQtQtQtQtQtQtQtQtQtQtQtQtQtQt",
"QtQtQtQtQtQtQtQtQtQtQtQtQtQtQtQtQtQtQtQtQtQtQtQtQtQtQtQtQtQtQtQt"};
